# AST/ASF file generated using VICON BodyLanguage
# -----------------------------------------------
:version 1.10
:name VICON
:units
  mass 1.0
  length 0.45
  angle deg
:documentation
   .ast/.asf automatically generated from VICON data using
   VICON BodyBuilder and BodyLanguage model FoxedUp or BRILLIANT.MOD
:root
   order TX TY TZ RX RY RZ
   axis XYZ
   position 0 0 0  
   orientation 0 0 0 
:bonedata
  begin
     id 1 
     name lhipjoint
     direction 0.610259 -0.730986 0.305356 
     length 2.50941 
     axis 0 0 0  XYZ
  end
  begin
     id 2 
     name lfemur
     direction 0.34202 -0.939693 0  
     length 7.48822  
     axis 0 0 20  XYZ
    dof rx ry rz
    limits (-160.0 20.0)
           (-70.0 70.0)
           (-60.0 70.0)
  end
  begin
     id 3 
     name ltibia
     direction 0.34202 -0.939693 0   
     length 7.60141   
     axis 0 0 20   XYZ
    dof rx
    limits (-10.0 170.0)
  end
  begin
     id 4 
     name lfoot
     direction 0.0673488 -0.185039 0.980421   
     length 2.04049   
     axis -90 7.62852e-016 20   XYZ
    dof rx rz
    limits (-45.0 90.0)
           (-70.0 20.0)
  end
  begin
     id 5 
     name ltoes
     direction 1.5356e-011 -4.21729e-011 1   
     length 1.02897   
     axis -90 7.62852e-016 20   XYZ
    dof rx
    limits (-90.0 20.0)
  end
  begin
     id 6 
     name rhipjoint
     direction -0.57612 -0.754205 0.315056   
     length 2.43216  
     axis 0 0 0  XYZ 
  end
  begin
     id 7 
     name rfemur
     direction -0.34202 -0.939693 0   
     length 7.42799   
     axis 0 0 -20   XYZ
    dof rx ry rz
    limits (-160.0 20.0)
           (-70.0 70.0)
           (-70.0 60.0)
  end
  begin
     id 8 
     name rtibia
     direction -0.34202 -0.939693 0   
     length 7.69484   
     axis 0 0 -20   XYZ
    dof rx
    limits (-10.0 170.0)
 end
 begin
     id 9 
     name rfoot
     direction -0.111837 -0.30727 0.945028   
     length 2.15769  
     axis -90 -7.62852e-016 -20   XYZ
    dof rx rz
    limits (-45.0 90.0)
           (-20.0 70.0)
  end
  begin
     id 10 
     name rtoes
     direction -1.53539e-011 -4.21878e-011 1   
     length 1.07391   
     axis -90 -7.62852e-016 -20   XYZ
    dof rx
    limits (-90.0 20.0)
  end
  begin
     id 11 
     name lowerback
     direction 0.00552624 0.990109 -0.140195   
     length 2.12403   
     axis 0 0 0   XYZ
    dof rx ry rz
    limits (-20.0 45.0)
           (-30.0 30.0)
           (-30.0 30.0)
  end
  begin
     id 12 
     name upperback
     direction 0.00361898 0.999976 -0.00584723   
     length 2.13232   
     axis 0 0 0   XYZ
    dof rx ry rz
    limits (-20.0 45.0)
           (-30.0 30.0)
           (-30.0 30.0)
  end
  begin
     id 13 
     name thorax
     direction -0.000331275 0.998253 0.0590847   
     length 2.17688   
     axis 0 0 0   XYZ
    dof rx ry rz
    limits (-20.0 45.0)
           (-30.0 30.0)
           (-30.0 30.0)
  end
  begin
     id 14 
     name lowerneck
     direction -0.0561561 0.979832 0.19177   
     length 1.64159   
     axis 0 0 0   XYZ
    dof rx ry rz
    limits (-20.0 45.0)
           (-30.0 30.0)
           (-30.0 30.0)
  end
  begin
     id 15 
     name upperneck
     direction 0.0827153 0.979385 -0.184293   
     length 1.68939   
     axis 0 0 0   XYZ
    dof rx ry rz
    limits (-20.0 45.0)
           (-30.0 30.0)
           (-30.0 30.0)
  end
  begin
     id 16
     name head
     direction 0.0278583 0.995936 -0.0856488  
     length 1.70207  
     axis 0 0 0   XYZ
    dof rx ry rz
    limits (-20.0 45.0)
           (-30.0 30.0)
           (-30.0 30.0)
  end
  begin
     id 17 
     name lclavicle
     direction 0.950993 0.301131 -0.0702275  
     length 3.41652  
     axis 0 0 0   XYZ
    dof ry rz
    limits (-20.0 10.0)
           (0.0 20.0)
  end
  begin
     id 18 
     name lhumerus
     direction 1 -4.48981e-011 -3.9662e-029   
     length 5.32955   
     axis 180 -30 -90   XYZ
    dof rx ry rz
    limits (-60.0 90.0)
           (-90.0 90.0)
           (-90.0 90.0)
  end
  begin
     id 19
     name lradius
     direction 1 -4.48925e-011 -9.0549e-027   
     length 3.69232   
     axis 180 -30 -90   XYZ
    dof rx
    limits (-10.0 170.0)
  end
  begin
     id 20
     name lwrist
     direction 1 -4.49007e-011 -1.49005e-026   
     length 1.84616   
     axis 9.0955e-015 90 90   XYZ
    dof ry
    limits (-180.0 0.0)
 end
  begin
     id 21 
     name lhand
     direction 1 -4.49016e-011 -2.98023e-026   
     length 0.536598   
     axis 1.90115e-014 90 90   XYZ
    dof rx rz
    limits (-90.0 90.0)
           (-45.0 45.0)
  end
  begin
     id 22 
     name lfingers
     direction 1 -4.48924e-011 -5.9578e-026   
     length 0.432619   
     axis 3.80223e-014 90 90   XYZ
    dof rx
    limits (0.0 90.0)
  end
  begin
     id 23
     name lthumb
     direction 0.707107 -6.34947e-011 0.707107   
     length 0.621157   
     axis -90 45 -3.84942e-014   XYZ
    dof rx rz
    limits (-45.0 45.0)
           (-45.0 45.0)
  end
  begin
     id 24 
     name rclavicle
     direction -0.955495 0.276497 -0.102848   
     length 3.36357  
     axis 0 0 0   XYZ 
    dof ry rz
    limits (-10.0 20.0)
           (-20.0 0.0)
  end
  begin
     id 25 
     name rhumerus
     direction -1 -4.48961e-011 3.30983e-027  
     length 5.23431   
     axis 180 30 90   XYZ
    dof rx ry rz
    limits (-90.0 60.0)
           (-90.0 90.0)
           (-90.0 90.0)
  end
  begin
     id 26 
     name rradius
     direction -1 -4.48965e-011 -6.63263e-027   
     length 3.55301   
     axis 180 30 90   XYZ
    dof rx
    limits (-10.0 170.0)
  end
  begin
     id 27 
     name rwrist
     direction -1 -4.48942e-011 -1.48958e-026   
     length 1.77651   
     axis 9.0955e-015 -90 -90   XYZ
    dof ry
    limits (-180.0 0.0)
  end
  begin
     id 28
     name rhand
     direction -1 -4.48977e-011 -2.97966e-026   
     length 0.772522   
     axis 1.90115e-014 -90 -90   XYZ
    dof rx rz
    limits (-90.0 90.0)
           (-45.0 45.0)
  end
  begin
     id 29
     name rfingers
     direction -1 -4.49135e-011 -5.96389e-026   
     length 0.622827   
     axis 3.80223e-014 -90 -90   XYZ
    dof rx
    limits (0.0 90.0)
  end
  begin
     id 30
     name rthumb
     direction -0.707107 -6.34969e-011 0.707107   
     length 0.894259   
     axis -90 -45 3.84942e-014   XYZ
    dof rx rz
    limits (-45.0 45.0)
           (-45.0 45.0)
  end
:hierarchy
  begin
    root lhipjoint rhipjoint lowerback
    lhipjoint lfemur
    lfemur ltibia
    ltibia lfoot
    lfoot ltoes
    rhipjoint rfemur
    rfemur rtibia
    rtibia rfoot
    rfoot rtoes
    lowerback upperback
    upperback thorax
    thorax lowerneck lclavicle rclavicle
    lowerneck upperneck
    upperneck head
    lclavicle lhumerus
    lhumerus lradius
    lradius lwrist
    lwrist lhand lthumb
    lhand lfingers
    rclavicle rhumerus
    rhumerus rradius
    rradius rwrist
    rwrist rhand rthumb
    rhand rfingers
  end

#!OML:ASF F:\VICON\USERDATA\INSTALL\rory3\rory3.ASF
:FULLY-SPECIFIED
:DEGREES
32
root 15.4557 17.971 -10.7005 1.32521 -45.1844 3.0819
lowerback 4.29627 0.500086 -1.88821
upperback -2.31807 0.571995 0.596935
thorax -4.83382 0.353814 1.62936
lowerneck -22.126 -4.23191 -10.3192
upperneck 23.6057 -4.29212 6.66387
head 11.7839 -2.03916 3.49548
rclavicle 8.35393e-014 -3.97569e-015
rhumerus -34.1597 -10.1319 -81.9958
rradius 28.3857
rwrist 11.0637
rhand -14.0896 11.4698
rfingers 7.12502
rthumb 12.0427 -18.1637
lclavicle 8.35393e-014 -3.97569e-015
lhumerus -36.9943 5.80324 85.231
lradius 30.2043
lwrist -9.44235
lhand -16.7665 25.016
lfingers 7.12502
lthumb 9.46063 54.7837
rfemur -10.6568 4.22195 22.3507
rtibia 33.9017
rfoot -21.2264 -6.144
rtoes 0.411228
lfemur -5.30936 -4.56159 -25.0635
ltibia 22.3995
lfoot -13.7986 5.75777
ltoes -4.83217
33
root 15.4555 17.9722 -10.7027 1.22255 -45.1757 3.20951
lowerback 4.30722 0.497245 -1.97796
upperback -2.30696 0.562046 0.588631
thorax -4.82906 0.351523 1.67198
lowerneck -22.0647 -4.21598 -10.3267
upperneck 23.6011 -4.27078 6.65308
head 11.7681 -2.03282 3.49635
rclavicle -2.7687e-014 9.14409e-015
rhumerus -34.1766 -9.86506 -82.0679
rradius 28.5086
rwrist 10.8227
rhand -14.3235 11.1918
rfingers 7.12502
rthumb 11.8171 -18.4548
lclavicle -2.7687e-014 9.14409e-015
lhumerus -36.9669 5.95947 85.2111
lradius 30.1483
lwrist -9.62142
lhand -17.0795 24.8535
lfingers 7.12502
lthumb 9.15864 54.6347
rfemur -10.6576 4.04714 22.229
rtibia 33.9129
rfoot -21.2616 -5.91774
rtoes 0.722631
lfemur -5.29545 -4.60686 -25.1649
ltibia 22.383
lfoot -13.7869 5.71231
ltoes -3.69399
34
root 15.4566 17.9731 -10.7075 1.29113 -45.1533 3.14017
lowerback 4.30305 0.480451 -1.91808
upperback -2.30028 0.544461 0.60927
thorax -4.81842 0.341061 1.66127
lowerneck -21.973 -4.19321 -10.2877
upperneck 23.5651 -4.24384 6.59259
head 11.7314 -2.0261 3.47088
rclavicle -2.40964e-014 -1.23246e-014
rhumerus -34.1303 -9.68843 -82.1307
rradius 28.5485
rwrist 10.7183
rhand -14.4228 11.1376
rfingers 7.12502
rthumb 11.7214 -18.5144
lclavicle -2.40964e-014 -1.23246e-014
lhumerus -36.9093 5.98683 85.2327
lradius 30.0754
lwrist -9.70524
lhand -17.259 24.8029
lfingers 7.12502
lthumb 8.98547 54.5916
rfemur -10.701 4.07737 22.2941
rtibia 33.9304
rfoot -21.24 -5.94075
rtoes 0.752489
lfemur -5.32313 -4.61714 -25.0966
ltibia 22.3636
lfoot -13.7755 5.65595
ltoes -2.7437
35
root 15.4585 17.9721 -10.7125 1.25634 -45.1452 3.1483
lowerback 4.37322 0.474325 -1.93613
upperback -2.28914 0.534848 0.628934
thorax -4.84674 0.337451 1.69225
lowerneck -21.8736 -4.19972 -10.3769
upperneck 23.5065 -4.24908 6.65873
head 11.6942 -2.02905 3.50919
rclavicle 5.42744e-014 4.37326e-015
rhumerus -34.1188 -9.5219 -82.1522
rradius 28.6279
rwrist 10.6006
rhand -14.3383 11.0876
rfingers 7.12502
rthumb 11.8029 -18.5598
lclavicle 5.42744e-014 4.37326e-015
lhumerus -36.9212 5.92644 85.3124
lradius 30.1116
lwrist -9.58905
lhand -17.0425 25.0231
lfingers 7.12502
lthumb 9.19435 54.8027
rfemur -10.692 4.09978 22.3037
rtibia 33.9403
rfoot -21.2525 -5.99182
rtoes 0.77524
lfemur -5.30519 -4.55405 -25.0834
ltibia 22.3608
lfoot -13.8045 5.55209
ltoes -2.92356
36
root 15.4592 17.97 -10.719 1.25399 -45.1938 3.11885
lowerback 4.41963 0.49672 -1.92446
upperback -2.25796 0.564461 0.617252
thorax -4.84165 0.351302 1.67084
lowerneck -21.9208 -4.19169 -10.3339
upperneck 23.5046 -4.25174 6.675
head 11.7019 -2.02322 3.50758
rclavicle -7.9576e-014 -3.57812e-015
rhumerus -34.0724 -9.44566 -82.2101
rradius 28.7132
rwrist 10.3461
rhand -14.1628 11.1377
rfingers 7.12502
rthumb 11.9721 -18.4999
lclavicle -7.9576e-014 -3.57812e-015
lhumerus -36.8587 5.53968 85.4458
lradius 30.1182
lwrist -9.23448
lhand -16.8056 25.0919
lfingers 7.12502
lthumb 9.42288 54.8613
rfemur -10.6843 4.11248 22.3445
rtibia 33.946
rfoot -21.2562 -6.0096
rtoes 0.529828
lfemur -5.30029 -4.47898 -25.0383
ltibia 22.3706
lfoot -13.7808 5.47426
ltoes -2.70111
37
root 15.4612 17.9702 -10.7251 1.28589 -45.181 3.05926
lowerback 4.45798 0.493255 -1.87163
upperback -2.21726 0.562605 0.609875
thorax -4.82015 0.348068 1.63355
lowerneck -22.0558 -4.18992 -10.2338
upperneck 23.5746 -4.25276 6.60593
head 11.7507 -2.02189 3.46539
rclavicle 5.41688e-015 5.1684e-015
rhumerus -33.9773 -9.33739 -82.2785
rradius 28.7635
rwrist 10.1244
rhand -13.9857 11.2674
rfingers 7.12502
rthumb 12.1429 -18.3602
lclavicle 5.41688e-015 5.1684e-015
lhumerus -36.7134 5.15552 85.5993
lradius 30.0209
lwrist -8.90716
lhand -16.9509 24.9461
lfingers 7.12502
lthumb 9.28275 54.7218
rfemur -10.6916 4.17752 22.412
rtibia 33.9588
rfoot -21.2857 -6.07127
rtoes 0.626306
lfemur -5.3095 -4.47914 -24.9749
ltibia 22.3663
lfoot -13.6359 5.52257
ltoes -3.78394
38
root 15.4639 17.9705 -10.7328 1.30826 -45.0788 3.07048
lowerback 4.48987 0.458975 -1.89303
upperback -2.21381 0.514695 0.605559
thorax -4.83283 0.325031 1.64508
lowerneck -22.0517 -4.14204 -10.1398
upperneck 23.561 -4.20848 6.5733
head 11.7368 -1.99741 3.44454
rclavicle 5.83309e-014 3.18055e-015
rhumerus -33.9001 -9.39229 -82.2599
rradius 28.7416
rwrist 10.1814
rhand -13.9796 11.2794
rfingers 7.12502
rthumb 12.1487 -18.3478
lclavicle 5.83309e-014 3.18055e-015
lhumerus -36.6605 4.89278 85.718
lradius 29.9944
lwrist -8.7062
lhand -17.0231 24.929
lfingers 7.12502
lthumb 9.21303 54.7077
rfemur -10.7497 4.2234 22.4402
rtibia 33.9813
rfoot -21.2542 -6.25131
rtoes 0.623479
lfemur -5.37157 -4.42688 -24.9438
ltibia 22.3556
lfoot -13.5914 5.47851
ltoes -5.5826
39
root 15.4675 17.9702 -10.7408 1.20486 -45.0177 3.20917
lowerback 4.53823 0.45001 -1.98499
upperback -2.18767 0.494888 0.57898
thorax -4.83295 0.317528 1.67073
lowerneck -22.0065 -4.14368 -10.1748
upperneck 23.5309 -4.21843 6.63063
head 11.7197 -1.99806 3.47006
rclavicle 1.19954e-014 5.1684e-015
rhumerus -33.8086 -9.40587 -82.2462
rradius 28.7029
rwrist 10.2679
rhand -14.2267 11.3108
rfingers 7.12502
rthumb 11.9105 -18.3304
lclavicle 1.19954e-014 5.1684e-015
lhumerus -36.5797 4.73565 85.805
lradius 29.9822
lwrist -8.50801
lhand -16.8107 25.1311
lfingers 7.12502
lthumb 9.41804 54.9007
rfemur -10.7853 4.20868 22.348
rtibia 34.0082
rfoot -21.2589 -6.2805
rtoes 0.809889
lfemur -5.39011 -4.35718 -25.0185
ltibia 22.3412
lfoot -13.6738 5.29674
ltoes -5.6183
40
root 15.4695 17.9706 -10.7484 1.11872 -44.9583 3.28137
lowerback 4.62142 0.429443 -2.0395
upperback -2.15938 0.461936 0.566724
thorax -4.84975 0.302712 1.6912
lowerneck -21.9854 -4.17825 -10.2338
upperneck 23.5536 -4.27158 6.70362
head 11.733 -2.01882 3.49928
rclavicle -1.96486e-014 -4.77083e-015
rhumerus -33.7551 -9.39339 -82.2344
rradius 28.6956
rwrist 10.3841
rhand -14.34 11.5456
rfingers 7.12502
rthumb 11.8013 -18.1019
lclavicle -1.96486e-014 -4.77083e-015
lhumerus -36.5526 4.63589 85.8822
lradius 30.0277
lwrist -8.24339
lhand -16.7456 25.2741
lfingers 7.12502
lthumb 9.48077 55.0409
rfemur -10.7811 4.22401 22.3125
rtibia 34.0415
rfoot -21.2932 -6.3398
rtoes 0.952484
lfemur -5.36962 -4.27266 -25.0501
ltibia 22.3174
lfoot -13.5887 5.1766
ltoes -5.90219
